REM DIRINDEX 1\2\5,1\2\6,1\2\7,1\2\8,1\3\9,1\3\10,1\3\11,1\4\12,1\4\13,1\4\14,1\4\15,1\4\16
REM DIRNAME cjc034,folder01,folder02,folder03,folder04,folder05,folder06,folder07,folder08,folder09,folder10,folder11,folder12,folder13,folder14,folder15
TITLE ""
FILE "1200_sec04_1239_1245.mp3" MP3
  TRACK 01 AUDIO
    TITLE "0:"
    INDEX 01 00:00:00
  TRACK 02 AUDIO
    TITLE "12:cjc034_08660"
    INDEX 01 00:00:19
  TRACK 03 AUDIO
    TITLE "0:"
    INDEX 01 00:01:34
  TRACK 04 AUDIO
    TITLE "13:cjc034_08661"
    INDEX 01 00:01:66
  TRACK 05 AUDIO
    TITLE "0:"
    INDEX 01 00:02:69
  TRACK 06 AUDIO
    TITLE "14:cjc034_08662"
    INDEX 01 00:03:31
  TRACK 07 AUDIO
    TITLE "0:"
    INDEX 01 00:04:42
  TRACK 08 AUDIO
    TITLE "15:cjc034_08663"
    INDEX 01 00:05:01
  TRACK 09 AUDIO
    TITLE "0:"
    INDEX 01 00:09:57
  TRACK 10 AUDIO
    TITLE "12:cjc034_08664"
    INDEX 01 00:11:13
  TRACK 11 AUDIO
    TITLE "0:"
    INDEX 01 00:12:20
  TRACK 12 AUDIO
    TITLE "13:cjc034_08665"
    INDEX 01 00:12:54
  TRACK 13 AUDIO
    TITLE "0:"
    INDEX 01 00:17:39
  TRACK 14 AUDIO
    TITLE "14:cjc034_08666"
    INDEX 01 00:17:70
  TRACK 15 AUDIO
    TITLE "0:"
    INDEX 01 00:19:01
  TRACK 16 AUDIO
    TITLE "15:cjc034_08667"
    INDEX 01 00:19:34
  TRACK 17 AUDIO
    TITLE "0:"
    INDEX 01 00:24:02
  TRACK 18 AUDIO
    TITLE "12:cjc034_08668"
    INDEX 01 00:25:33
  TRACK 19 AUDIO
    TITLE "0:"
    INDEX 01 00:26:38
  TRACK 20 AUDIO
    TITLE "13:cjc034_08669"
    INDEX 01 00:27:00
  TRACK 21 AUDIO
    TITLE "0:"
    INDEX 01 00:29:23
  TRACK 22 AUDIO
    TITLE "14:cjc034_08670"
    INDEX 01 00:29:54
  TRACK 23 AUDIO
    TITLE "0:"
    INDEX 01 00:30:61
  TRACK 24 AUDIO
    TITLE "15:cjc034_08671"
    INDEX 01 00:31:24
  TRACK 25 AUDIO
    TITLE "0:"
    INDEX 01 00:35:29
  TRACK 26 AUDIO
    TITLE "12:cjc034_08672"
    INDEX 01 00:36:60
  TRACK 27 AUDIO
    TITLE "0:"
    INDEX 01 00:37:69
  TRACK 28 AUDIO
    TITLE "13:cjc034_08673"
    INDEX 01 00:38:28
  TRACK 29 AUDIO
    TITLE "0:"
    INDEX 01 00:39:37
  TRACK 30 AUDIO
    TITLE "14:cjc034_08674"
    INDEX 01 00:39:70
  TRACK 31 AUDIO
    TITLE "0:"
    INDEX 01 00:41:02
  TRACK 32 AUDIO
    TITLE "15:cjc034_08675"
    INDEX 01 00:41:36
  TRACK 33 AUDIO
    TITLE "0:"
    INDEX 01 00:45:24
  TRACK 34 AUDIO
    TITLE "12:cjc034_08676"
    INDEX 01 00:46:54
  TRACK 35 AUDIO
    TITLE "0:"
    INDEX 01 00:47:70
  TRACK 36 AUDIO
    TITLE "13:cjc034_08677"
    INDEX 01 00:48:30
  TRACK 37 AUDIO
    TITLE "0:"
    INDEX 01 00:49:53
  TRACK 38 AUDIO
    TITLE "14:cjc034_08678"
    INDEX 01 00:50:09
  TRACK 39 AUDIO
    TITLE "0:"
    INDEX 01 00:51:28
  TRACK 40 AUDIO
    TITLE "15:cjc034_08679"
    INDEX 01 00:51:60
  TRACK 41 AUDIO
    TITLE "0:"
    INDEX 01 00:56:33
  TRACK 42 AUDIO
    TITLE "16:cjc034_08680"
    INDEX 01 00:57:66
  TRACK 43 AUDIO
    TITLE "0:"
    INDEX 01 01:04:37
  TRACK 44 AUDIO
    TITLE "12:cjc034_08681"
    INDEX 01 01:05:42
  TRACK 45 AUDIO
    TITLE "0:"
    INDEX 01 01:06:43
  TRACK 46 AUDIO
    TITLE "13:cjc034_08682"
    INDEX 01 01:07:00
  TRACK 47 AUDIO
    TITLE "0:"
    INDEX 01 01:09:14
  TRACK 48 AUDIO
    TITLE "14:cjc034_08683"
    INDEX 01 01:09:48
  TRACK 49 AUDIO
    TITLE "0:"
    INDEX 01 01:10:49
  TRACK 50 AUDIO
    TITLE "15:cjc034_08684"
    INDEX 01 01:11:07
  TRACK 51 AUDIO
    TITLE "0:"
    INDEX 01 01:14:68
  TRACK 52 AUDIO
    TITLE "12:cjc034_08685"
    INDEX 01 01:16:28
  TRACK 53 AUDIO
    TITLE "0:"
    INDEX 01 01:17:43
  TRACK 54 AUDIO
    TITLE "13:cjc034_08686"
    INDEX 01 01:18:00
  TRACK 55 AUDIO
    TITLE "0:"
    INDEX 01 01:21:49
  TRACK 56 AUDIO
    TITLE "14:cjc034_08687"
    INDEX 01 01:22:05
  TRACK 57 AUDIO
    TITLE "0:"
    INDEX 01 01:23:22
  TRACK 58 AUDIO
    TITLE "15:cjc034_08688"
    INDEX 01 01:23:54
  TRACK 59 AUDIO
    TITLE "0:"
    INDEX 01 01:27:40
